<svg xmlns="http://www.w3.org/2000/svg" viewBox="0 0 265 407.52"><defs><style>.cls-1{fill:#eee9dd;}.cls-2{fill:#b99789;}.cls-11,.cls-2{opacity:0.4;}.cls-3,.cls-7{fill:#fff;}.cls-4{fill:#d3bdae;}.cls-5{fill:#463e3b;}.cls-6{fill:#4c4847;}.cls-13,.cls-7{opacity:0.25;}.cls-8{fill:#d4c1b4;}.cls-9{fill:#e4cfcb;}.cls-10{fill:#ba9589;}.cls-11{fill:#302b29;}.cls-12{fill:#53bad0;}</style></defs><title>Asset 190</title><g id="Layer_2" data-name="Layer 2"><g id="Layer_1-2" data-name="Layer 1"><path class="cls-1" d="M234.38,130.5H29.62c-5.68,0-10.32,4.18-10.32,9.3V393.13c0,5.11,4.65,9.3,10.32,9.3H234.38c5.68,0,10.32-4.18,10.32-9.3V139.8C244.7,134.68,240.05,130.5,234.38,130.5Z"/><path class="cls-2" d="M235.38,384.43H30.62c-5.68,0-10.32-4.18-10.32-9.3v17c0,5.11,4.65,9.3,10.32,9.3H235.38c5.68,0,10.32-4.18,10.32-9.3v-17C245.7,380.25,241.05,384.43,235.38,384.43Z"/><rect class="cls-3" x="127.3" y="367.93" width="4.5" height="34"/><rect class="cls-3" x="134.3" y="367.43" width="2" height="34"/><rect class="cls-4" x="20.3" y="367.43" width="225" height="6"/><path class="cls-5" d="M235.38,403.93H30.62c-6.52,0-11.82-4.84-11.82-10.8V139.8c0-6,5.3-10.8,11.82-10.8H235.38c6.52,0,11.82,4.84,11.82,10.8V393.13C247.2,399.09,241.9,403.93,235.38,403.93ZM30.62,132c-4.87,0-8.82,3.5-8.82,7.8V393.13c0,4.3,4,7.8,8.82,7.8H235.38c4.87,0,8.82-3.5,8.82-7.8V139.8c0-4.3-4-7.8-8.82-7.8Z"/><rect class="cls-5" x="35.3" y="380.43" width="3" height="11.14" rx="1.5" ry="1.5"/><rect class="cls-5" x="40.97" y="380.43" width="3" height="11.14" rx="1.5" ry="1.5"/><rect class="cls-5" x="46.63" y="380.43" width="3" height="11.14" rx="1.5" ry="1.5"/><rect class="cls-5" x="52.3" y="380.43" width="3" height="11.14" rx="1.5" ry="1.5"/><rect class="cls-5" x="57.97" y="380.43" width="3" height="11.14" rx="1.5" ry="1.5"/><rect class="cls-5" x="63.63" y="380.43" width="3" height="11.14" rx="1.5" ry="1.5"/><rect class="cls-5" x="69.3" y="380.43" width="3" height="11.14" rx="1.5" ry="1.5"/><rect class="cls-6" x="210.8" y="373.93" width="23" height="23" rx="3.75" ry="3.75"/><path class="cls-7" d="M233.05,377v14.66a3.55,3.55,0,0,1-3.55,3.55H214.85a3.55,3.55,0,0,1-3.55-3.55V377a3.54,3.54,0,0,1,2.35-3.34,3.49,3.49,0,0,0-.94,2.39v11.82a3.55,3.55,0,0,0,3.55,3.55h11.82a3.55,3.55,0,0,0,3.55-3.55V376a3.49,3.49,0,0,0-.94-2.39A3.54,3.54,0,0,1,233.05,377Z"/><path class="cls-5" d="M230,398.43H214.55a5.26,5.26,0,0,1-5.25-5.25V377.68a5.26,5.26,0,0,1,5.25-5.25H230a5.26,5.26,0,0,1,5.25,5.25v15.49A5.26,5.26,0,0,1,230,398.43Zm-15.49-23a2.26,2.26,0,0,0-2.25,2.25v15.49a2.26,2.26,0,0,0,2.25,2.25H230a2.26,2.26,0,0,0,2.25-2.25V377.68a2.26,2.26,0,0,0-2.25-2.25Z"/><rect class="cls-5" x="206.3" y="402.43" width="28" height="5.09" rx="2" ry="2"/><rect class="cls-5" x="31.3" y="402.43" width="28" height="5.09" rx="2" ry="2"/><rect class="cls-8" x="1.5" y="1.5" width="262" height="350.93" rx="12" ry="12"/><rect class="cls-9" x="250.5" y="273.43" width="4.3" height="16"/><path class="cls-1" d="M250.5,23.06v305.5a12,12,0,0,1-12,12H26.5a12,12,0,0,1-12-12V23.06a12,12,0,0,1,12-12H89.72L79.8,19.78h6.07l9.92-8.72h4.79l-9.92,8.72h3.6l9.92-8.72H238.5A12,12,0,0,1,250.5,23.06Z"/><path class="cls-5" d="M251.5,353.93H13.5A13.52,13.52,0,0,1,0,340.43V13.5A13.52,13.52,0,0,1,13.5,0h238A13.52,13.52,0,0,1,265,13.5V340.43A13.52,13.52,0,0,1,251.5,353.93ZM13.5,3A10.51,10.51,0,0,0,3,13.5V340.43a10.51,10.51,0,0,0,10.5,10.5h238a10.51,10.51,0,0,0,10.5-10.5V13.5A10.51,10.51,0,0,0,251.5,3Z"/><rect class="cls-4" x="14.5" y="273.43" width="236" height="16"/><rect class="cls-10" x="14.8" y="273.43" width="236" height="3"/><rect class="cls-5" x="102.8" y="276.43" width="64" height="13" rx="6.5" ry="6.5"/><rect class="cls-5" x="153.8" y="264.43" width="32" height="37" rx="6.43" ry="6.43"/><path class="cls-11" d="M110.8,279.43h66a2,2,0,0,1,2,2v2a2,2,0,0,1-2,2h-66a0,0,0,0,1,0,0v-6a0,0,0,0,1,0,0Z"/><polygon class="cls-3" points="95.79 11.06 85.87 19.78 79.8 19.78 89.72 11.06 95.79 11.06"/><polygon class="cls-3" points="104.18 11.06 94.26 19.78 90.66 19.78 100.58 11.06 104.18 11.06"/><rect class="cls-4" x="25.59" y="19.78" width="213.83" height="177.65" rx="12" ry="12"/><rect class="cls-12" x="40.87" y="31.79" width="185.26" height="153.91" rx="5.75" ry="5.75"/><g class="cls-13"><path class="cls-3" d="M184.6,28.78,71.43,182.69H46.62A5.76,5.76,0,0,1,40.87,177V152.52l91-123.74Z"/><path class="cls-3" d="M221.5,28.89,108.4,182.69H87.51L200.69,28.78h19.7A5.81,5.81,0,0,1,221.5,28.89Z"/></g><path class="cls-5" d="M219.39,187.19H45.62a8.26,8.26,0,0,1-8.25-8.25V36.53a8.26,8.26,0,0,1,8.25-8.25H219.39a8.26,8.26,0,0,1,8.25,8.25V178.95A8.26,8.26,0,0,1,219.39,187.19ZM45.62,33.29a3.25,3.25,0,0,0-3.25,3.25V178.95a3.25,3.25,0,0,0,3.25,3.25H219.39a3.25,3.25,0,0,0,3.25-3.25V36.53a3.25,3.25,0,0,0-3.25-3.25Z"/><circle class="cls-5" cx="237.3" cy="331.93" r="3.5"/></g></g></svg>